<?xml version="1.0" standalone="no"?>
<!DOCTYPE svg PUBLIC "-//W3C//DTD SVG 20010904//EN"
 "http://www.w3.org/TR/2001/REC-SVG-20010904/DTD/svg10.dtd">
<svg version="1.0" xmlns="http://www.w3.org/2000/svg"
 width="202.000000pt" height="202.000000pt" viewBox="0 0 202.000000 202.000000"
 preserveAspectRatio="xMidYMid meet">
<metadata>
Created by potrace 1.11, written by Peter Selinger 2001-2013
</metadata>
<g transform="translate(0.000000,202.000000) scale(0.100000,-0.100000)"
fill="#000000" stroke="none">
<path d="M0 1835 c0 -133 3 -175 13 -175 6 0 57 5 112 11 150 15 195 18 195
14 0 -3 -9 -20 -20 -40 -11 -20 -20 -49 -20 -65 0 -17 -14 -46 -35 -75 -20
-25 -45 -71 -57 -102 -19 -53 -20 -71 -16 -244 5 -175 8 -191 32 -244 14 -32
26 -67 26 -80 0 -65 87 -219 135 -239 42 -18 128 -129 127 -165 0 -14 -15 -52
-32 -84 -17 -32 -30 -66 -28 -75 2 -8 -9 -29 -25 -45 -28 -30 -36 -57 -16 -57
6 0 8 -7 5 -16 -6 -14 -4 -15 9 -4 12 10 13 15 4 21 -8 5 -2 14 21 28 31 19
34 19 48 3 13 -16 13 -16 8 1 -3 11 -3 23 0 28 9 16 44 -58 44 -93 0 -19 13
-50 33 -80 l32 -47 299 -1 c260 0 304 2 338 17 21 9 38 20 38 24 0 3 13 12 29
19 17 7 37 28 50 53 12 23 33 47 46 54 24 11 25 10 25 -29 0 -21 -4 -47 -9
-56 -4 -9 -11 -32 -14 -49 l-7 -33 51 0 c49 0 51 1 44 23 -4 12 -10 57 -14 99
-7 84 -13 98 -39 82 -12 -8 -34 -7 -77 3 -33 8 -72 16 -87 20 -15 3 -48 23
-72 44 -24 22 -49 39 -55 39 -6 0 -11 5 -11 10 0 6 -12 10 -28 10 -35 0 -73
26 -66 45 4 9 0 15 -10 15 -9 0 -16 5 -16 10 0 6 -20 31 -45 56 -51 51 -84
113 -86 164 -1 19 -6 49 -11 65 -8 23 -6 40 6 69 21 49 21 130 0 161 -15 22
-14 25 5 42 12 9 21 24 21 33 0 11 9 15 35 14 19 -1 38 2 41 7 11 18 45 9 53
-15 11 -26 51 -43 51 -20 0 7 9 18 19 23 15 8 25 6 46 -11 l28 -22 18 23 c15
19 21 20 40 11 16 -9 23 -9 29 0 9 15 36 2 67 -34 27 -31 43 -34 36 -6 -3 11
-9 20 -14 20 -5 0 -9 6 -9 12 0 7 -8 32 -17 56 -15 35 -24 44 -56 53 -21 6
-51 8 -65 5 -15 -3 -66 -8 -114 -11 -83 -5 -88 -4 -88 14 0 11 -7 24 -16 29
-13 7 -13 12 3 40 10 17 37 41 59 53 23 11 46 31 52 42 5 12 34 34 64 50 44
21 69 27 122 27 82 0 175 -22 241 -58 45 -25 50 -32 67 -87 30 -101 28 -105
-41 -105 -49 0 -65 -4 -85 -24 -15 -13 -26 -33 -26 -45 0 -20 4 -21 36 -15 31
6 35 4 33 -12 -6 -31 9 -46 32 -33 12 6 23 8 26 5 3 -3 14 -1 24 4 16 9 18 4
24 -46 7 -49 25 -84 43 -84 4 0 29 16 55 36 54 39 78 85 103 194 14 61 14 137
2 285 -1 6 4 34 11 64 13 59 4 103 -30 152 -10 14 -21 37 -24 52 -4 15 -11 28
-16 28 -5 1 -14 2 -19 3 -6 0 -28 32 -49 69 -38 69 -88 114 -171 156 -19 10
-56 30 -81 44 -91 53 -180 67 -425 67 -202 0 -222 -2 -229 -17 -6 -17 -7 -17
-19 0 -12 16 -43 17 -390 17 l-376 0 0 -175z m678 -1172 c3 -33 3 -33 -42 -33
-48 0 -60 8 -50 35 8 20 41 35 69 32 15 -1 21 -11 23 -34z"/>
<path d="M1274 736 c-8 -26 14 -44 63 -50 22 -2 51 -11 62 -18 24 -15 45 -6
69 30 13 20 12 23 -20 42 -45 28 -165 25 -174 -4z"/>
<path d="M1345 562 c-63 -12 -95 -24 -95 -37 0 -28 142 -12 148 16 3 18 -21
27 -53 21z"/>
<path d="M1420 550 c0 -11 -4 -20 -10 -20 -5 0 -10 -4 -10 -10 0 -5 25 -10 55
-10 64 0 75 19 25 45 -40 21 -60 19 -60 -5z"/>
<path d="M1310 436 c0 -17 31 -26 93 -26 37 0 47 3 47 16 0 14 -9 16 -60 11
-33 -3 -60 -1 -60 4 0 5 -4 9 -10 9 -5 0 -10 -6 -10 -14z"/>
<path d="M1728 413 l-178 -3 -6 -26 c-4 -14 -4 -28 -1 -31 4 -3 112 -2 242 2
l235 7 0 29 c0 29 0 29 -57 27 -32 -1 -138 -4 -235 -5z"/>
<path d="M0 231 l0 -40 64 6 c56 5 66 3 85 -16 12 -12 21 -34 21 -50 0 -32 24
-48 46 -30 16 13 19 120 4 149 -8 16 -24 18 -115 19 l-105 1 0 -39z"/>
<path d="M338 164 c-34 -18 -36 -33 -4 -27 13 3 26 14 29 24 3 10 4 19 4 19
-1 -1 -14 -8 -29 -16z"/>
</g>
</svg>
